<mxfile host="app.diagrams.net" modified="2020-11-15T15:53:43.413Z" agent="5.0 (Macintosh; Intel Mac OS X 10_15_6) AppleWebKit/537.36 (KHTML, like Gecko) Chrome/86.0.4240.193 Safari/537.36" etag="2wq4P4HG1jq8BGCpkFKK" version="13.9.6" type="github">
  <diagram id="C5RBs43oDa-KdzZeNtuy" name="Page-1">
    <mxGraphModel dx="1298" dy="834" grid="1" gridSize="10" guides="1" tooltips="1" connect="1" arrows="1" fold="1" page="1" pageScale="1" pageWidth="827" pageHeight="1169" math="0" shadow="0">
      <root>
        <mxCell id="WIyWlLk6GJQsqaUBKTNV-0" />
        <mxCell id="WIyWlLk6GJQsqaUBKTNV-1" parent="WIyWlLk6GJQsqaUBKTNV-0" />
        <mxCell id="_O8ClgLyPDyjsfxp53-W-1" value="FiberRootNode" style="rounded=1;whiteSpace=wrap;html=1;" parent="WIyWlLk6GJQsqaUBKTNV-1" vertex="1">
          <mxGeometry x="340" y="190" width="120" height="60" as="geometry" />
        </mxCell>
        <mxCell id="_O8ClgLyPDyjsfxp53-W-2" value="rootFiber" style="whiteSpace=wrap;html=1;rounded=1;" parent="WIyWlLk6GJQsqaUBKTNV-1" vertex="1">
          <mxGeometry x="150" y="320" width="120" height="60" as="geometry" />
        </mxCell>
        <mxCell id="_O8ClgLyPDyjsfxp53-W-19" value="App" style="whiteSpace=wrap;html=1;rounded=1;" parent="WIyWlLk6GJQsqaUBKTNV-1" vertex="1">
          <mxGeometry x="150" y="460" width="120" height="60" as="geometry" />
        </mxCell>
        <mxCell id="_O8ClgLyPDyjsfxp53-W-21" value="div" style="whiteSpace=wrap;html=1;rounded=1;" parent="WIyWlLk6GJQsqaUBKTNV-1" vertex="1">
          <mxGeometry x="150" y="600" width="120" height="60" as="geometry" />
        </mxCell>
        <mxCell id="_O8ClgLyPDyjsfxp53-W-25" value="rootFiber" style="whiteSpace=wrap;html=1;rounded=1;" parent="WIyWlLk6GJQsqaUBKTNV-1" vertex="1">
          <mxGeometry x="480" y="320" width="120" height="60" as="geometry" />
        </mxCell>
        <mxCell id="_O8ClgLyPDyjsfxp53-W-27" value="App" style="whiteSpace=wrap;html=1;rounded=1;" parent="WIyWlLk6GJQsqaUBKTNV-1" vertex="1">
          <mxGeometry x="480" y="460" width="120" height="60" as="geometry" />
        </mxCell>
        <mxCell id="_O8ClgLyPDyjsfxp53-W-32" value="" style="edgeStyle=orthogonalEdgeStyle;rounded=0;orthogonalLoop=1;jettySize=auto;html=1;" parent="WIyWlLk6GJQsqaUBKTNV-1" source="_O8ClgLyPDyjsfxp53-W-29" target="_O8ClgLyPDyjsfxp53-W-31" edge="1">
          <mxGeometry relative="1" as="geometry" />
        </mxCell>
        <mxCell id="_O8ClgLyPDyjsfxp53-W-46" value="child" style="edgeLabel;html=1;align=center;verticalAlign=middle;resizable=0;points=[];" parent="_O8ClgLyPDyjsfxp53-W-32" vertex="1" connectable="0">
          <mxGeometry x="-0.3" y="-2" relative="1" as="geometry">
            <mxPoint as="offset" />
          </mxGeometry>
        </mxCell>
        <mxCell id="_O8ClgLyPDyjsfxp53-W-29" value="div" style="whiteSpace=wrap;html=1;rounded=1;" parent="WIyWlLk6GJQsqaUBKTNV-1" vertex="1">
          <mxGeometry x="480" y="600" width="120" height="60" as="geometry" />
        </mxCell>
        <mxCell id="_O8ClgLyPDyjsfxp53-W-31" value="header" style="whiteSpace=wrap;html=1;rounded=1;" parent="WIyWlLk6GJQsqaUBKTNV-1" vertex="1">
          <mxGeometry x="480" y="740" width="120" height="60" as="geometry" />
        </mxCell>
        <mxCell id="_O8ClgLyPDyjsfxp53-W-33" value="" style="endArrow=classic;html=1;entryX=0.5;entryY=0;entryDx=0;entryDy=0;" parent="WIyWlLk6GJQsqaUBKTNV-1" target="_O8ClgLyPDyjsfxp53-W-2" edge="1">
          <mxGeometry relative="1" as="geometry">
            <mxPoint x="400" y="250" as="sourcePoint" />
            <mxPoint x="460" y="550" as="targetPoint" />
          </mxGeometry>
        </mxCell>
        <mxCell id="_O8ClgLyPDyjsfxp53-W-34" value="current" style="edgeLabel;resizable=0;html=1;align=center;verticalAlign=middle;" parent="_O8ClgLyPDyjsfxp53-W-33" connectable="0" vertex="1">
          <mxGeometry relative="1" as="geometry" />
        </mxCell>
        <mxCell id="_O8ClgLyPDyjsfxp53-W-36" value="" style="endArrow=classic;html=1;exitX=1;exitY=0.5;exitDx=0;exitDy=0;entryX=0;entryY=0.5;entryDx=0;entryDy=0;" parent="WIyWlLk6GJQsqaUBKTNV-1" source="_O8ClgLyPDyjsfxp53-W-2" target="_O8ClgLyPDyjsfxp53-W-25" edge="1">
          <mxGeometry relative="1" as="geometry">
            <mxPoint x="410" y="260" as="sourcePoint" />
            <mxPoint x="290" y="390" as="targetPoint" />
          </mxGeometry>
        </mxCell>
        <mxCell id="_O8ClgLyPDyjsfxp53-W-37" value="alternate" style="edgeLabel;resizable=0;html=1;align=center;verticalAlign=middle;" parent="_O8ClgLyPDyjsfxp53-W-36" connectable="0" vertex="1">
          <mxGeometry relative="1" as="geometry" />
        </mxCell>
        <mxCell id="_O8ClgLyPDyjsfxp53-W-47" value="" style="edgeStyle=orthogonalEdgeStyle;rounded=0;orthogonalLoop=1;jettySize=auto;html=1;" parent="WIyWlLk6GJQsqaUBKTNV-1" edge="1">
          <mxGeometry relative="1" as="geometry">
            <mxPoint x="539.5" y="520" as="sourcePoint" />
            <mxPoint x="539.5" y="600" as="targetPoint" />
          </mxGeometry>
        </mxCell>
        <mxCell id="_O8ClgLyPDyjsfxp53-W-48" value="child" style="edgeLabel;html=1;align=center;verticalAlign=middle;resizable=0;points=[];" parent="_O8ClgLyPDyjsfxp53-W-47" vertex="1" connectable="0">
          <mxGeometry x="-0.3" y="-2" relative="1" as="geometry">
            <mxPoint as="offset" />
          </mxGeometry>
        </mxCell>
        <mxCell id="_O8ClgLyPDyjsfxp53-W-49" value="" style="edgeStyle=orthogonalEdgeStyle;rounded=0;orthogonalLoop=1;jettySize=auto;html=1;" parent="WIyWlLk6GJQsqaUBKTNV-1" edge="1">
          <mxGeometry relative="1" as="geometry">
            <mxPoint x="539.5" y="380" as="sourcePoint" />
            <mxPoint x="539.5" y="460" as="targetPoint" />
          </mxGeometry>
        </mxCell>
        <mxCell id="_O8ClgLyPDyjsfxp53-W-50" value="child" style="edgeLabel;html=1;align=center;verticalAlign=middle;resizable=0;points=[];" parent="_O8ClgLyPDyjsfxp53-W-49" vertex="1" connectable="0">
          <mxGeometry x="-0.3" y="-2" relative="1" as="geometry">
            <mxPoint as="offset" />
          </mxGeometry>
        </mxCell>
        <mxCell id="_O8ClgLyPDyjsfxp53-W-51" value="" style="edgeStyle=orthogonalEdgeStyle;rounded=0;orthogonalLoop=1;jettySize=auto;html=1;" parent="WIyWlLk6GJQsqaUBKTNV-1" edge="1">
          <mxGeometry relative="1" as="geometry">
            <mxPoint x="209.5" y="380" as="sourcePoint" />
            <mxPoint x="209.5" y="460" as="targetPoint" />
          </mxGeometry>
        </mxCell>
        <mxCell id="_O8ClgLyPDyjsfxp53-W-52" value="child" style="edgeLabel;html=1;align=center;verticalAlign=middle;resizable=0;points=[];" parent="_O8ClgLyPDyjsfxp53-W-51" vertex="1" connectable="0">
          <mxGeometry x="-0.3" y="-2" relative="1" as="geometry">
            <mxPoint as="offset" />
          </mxGeometry>
        </mxCell>
        <mxCell id="_O8ClgLyPDyjsfxp53-W-53" value="" style="edgeStyle=orthogonalEdgeStyle;rounded=0;orthogonalLoop=1;jettySize=auto;html=1;" parent="WIyWlLk6GJQsqaUBKTNV-1" edge="1">
          <mxGeometry relative="1" as="geometry">
            <mxPoint x="209.5" y="520" as="sourcePoint" />
            <mxPoint x="209.5" y="600" as="targetPoint" />
          </mxGeometry>
        </mxCell>
        <mxCell id="_O8ClgLyPDyjsfxp53-W-54" value="child" style="edgeLabel;html=1;align=center;verticalAlign=middle;resizable=0;points=[];" parent="_O8ClgLyPDyjsfxp53-W-53" vertex="1" connectable="0">
          <mxGeometry x="-0.3" y="-2" relative="1" as="geometry">
            <mxPoint as="offset" />
          </mxGeometry>
        </mxCell>
        <mxCell id="_O8ClgLyPDyjsfxp53-W-55" value="" style="edgeStyle=orthogonalEdgeStyle;rounded=0;orthogonalLoop=1;jettySize=auto;html=1;" parent="WIyWlLk6GJQsqaUBKTNV-1" edge="1">
          <mxGeometry relative="1" as="geometry">
            <mxPoint x="209.5" y="660" as="sourcePoint" />
            <mxPoint x="209.5" y="740" as="targetPoint" />
          </mxGeometry>
        </mxCell>
        <mxCell id="_O8ClgLyPDyjsfxp53-W-56" value="child" style="edgeLabel;html=1;align=center;verticalAlign=middle;resizable=0;points=[];" parent="_O8ClgLyPDyjsfxp53-W-55" vertex="1" connectable="0">
          <mxGeometry x="-0.3" y="-2" relative="1" as="geometry">
            <mxPoint as="offset" />
          </mxGeometry>
        </mxCell>
        <mxCell id="_O8ClgLyPDyjsfxp53-W-57" value="header" style="whiteSpace=wrap;html=1;rounded=1;" parent="WIyWlLk6GJQsqaUBKTNV-1" vertex="1">
          <mxGeometry x="150" y="740" width="120" height="60" as="geometry" />
        </mxCell>
        <mxCell id="_O8ClgLyPDyjsfxp53-W-60" value="" style="endArrow=classic;html=1;exitX=1;exitY=0.5;exitDx=0;exitDy=0;entryX=0;entryY=0.5;entryDx=0;entryDy=0;" parent="WIyWlLk6GJQsqaUBKTNV-1" edge="1">
          <mxGeometry relative="1" as="geometry">
            <mxPoint x="270" y="489.5" as="sourcePoint" />
            <mxPoint x="480" y="489.5" as="targetPoint" />
          </mxGeometry>
        </mxCell>
        <mxCell id="_O8ClgLyPDyjsfxp53-W-61" value="alternate" style="edgeLabel;resizable=0;html=1;align=center;verticalAlign=middle;" parent="_O8ClgLyPDyjsfxp53-W-60" connectable="0" vertex="1">
          <mxGeometry relative="1" as="geometry" />
        </mxCell>
        <mxCell id="_O8ClgLyPDyjsfxp53-W-62" value="" style="endArrow=classic;html=1;exitX=1;exitY=0.5;exitDx=0;exitDy=0;entryX=0;entryY=0.5;entryDx=0;entryDy=0;" parent="WIyWlLk6GJQsqaUBKTNV-1" edge="1">
          <mxGeometry relative="1" as="geometry">
            <mxPoint x="270" y="629.5" as="sourcePoint" />
            <mxPoint x="480" y="629.5" as="targetPoint" />
          </mxGeometry>
        </mxCell>
        <mxCell id="_O8ClgLyPDyjsfxp53-W-63" value="alternate" style="edgeLabel;resizable=0;html=1;align=center;verticalAlign=middle;" parent="_O8ClgLyPDyjsfxp53-W-62" connectable="0" vertex="1">
          <mxGeometry relative="1" as="geometry" />
        </mxCell>
        <mxCell id="_O8ClgLyPDyjsfxp53-W-64" value="" style="endArrow=classic;html=1;exitX=1;exitY=0.5;exitDx=0;exitDy=0;entryX=0;entryY=0.5;entryDx=0;entryDy=0;" parent="WIyWlLk6GJQsqaUBKTNV-1" edge="1">
          <mxGeometry relative="1" as="geometry">
            <mxPoint x="270" y="769.5" as="sourcePoint" />
            <mxPoint x="480" y="769.5" as="targetPoint" />
          </mxGeometry>
        </mxCell>
        <mxCell id="_O8ClgLyPDyjsfxp53-W-65" value="alternate" style="edgeLabel;resizable=0;html=1;align=center;verticalAlign=middle;" parent="_O8ClgLyPDyjsfxp53-W-64" connectable="0" vertex="1">
          <mxGeometry relative="1" as="geometry" />
        </mxCell>
        <mxCell id="qpE1LOoZCrQ45wFJdD8l-30" value="" style="edgeStyle=orthogonalEdgeStyle;rounded=0;orthogonalLoop=1;jettySize=auto;html=1;" edge="1" parent="WIyWlLk6GJQsqaUBKTNV-1">
          <mxGeometry relative="1" as="geometry">
            <mxPoint x="445" y="1290" as="sourcePoint" />
            <mxPoint x="445" y="1370" as="targetPoint" />
            <Array as="points">
              <mxPoint x="445" y="1300" />
              <mxPoint x="445" y="1300" />
            </Array>
          </mxGeometry>
        </mxCell>
        <mxCell id="qpE1LOoZCrQ45wFJdD8l-31" value="firstEffect" style="edgeLabel;html=1;align=center;verticalAlign=middle;resizable=0;points=[];" vertex="1" connectable="0" parent="qpE1LOoZCrQ45wFJdD8l-30">
          <mxGeometry x="-0.25" relative="1" as="geometry">
            <mxPoint y="9" as="offset" />
          </mxGeometry>
        </mxCell>
        <mxCell id="qpE1LOoZCrQ45wFJdD8l-32" value="lastEffect" style="edgeStyle=orthogonalEdgeStyle;rounded=0;orthogonalLoop=1;jettySize=auto;html=1;" edge="1" parent="WIyWlLk6GJQsqaUBKTNV-1">
          <mxGeometry relative="1" as="geometry">
            <mxPoint x="353" y="1292" as="sourcePoint" />
            <mxPoint x="353" y="1368" as="targetPoint" />
          </mxGeometry>
        </mxCell>
        <mxCell id="qpE1LOoZCrQ45wFJdD8l-27" value="p" style="rounded=1;whiteSpace=wrap;html=1;" vertex="1" parent="WIyWlLk6GJQsqaUBKTNV-1">
          <mxGeometry x="340" y="1230" width="120" height="60" as="geometry" />
        </mxCell>
        <mxCell id="qpE1LOoZCrQ45wFJdD8l-42" value="next" style="edgeStyle=orthogonalEdgeStyle;rounded=0;orthogonalLoop=1;jettySize=auto;html=1;entryX=0.5;entryY=1;entryDx=0;entryDy=0;" edge="1" parent="WIyWlLk6GJQsqaUBKTNV-1" source="qpE1LOoZCrQ45wFJdD8l-29" target="qpE1LOoZCrQ45wFJdD8l-27">
          <mxGeometry relative="1" as="geometry" />
        </mxCell>
        <mxCell id="qpE1LOoZCrQ45wFJdD8l-29" value="code" style="whiteSpace=wrap;html=1;rounded=1;" vertex="1" parent="WIyWlLk6GJQsqaUBKTNV-1">
          <mxGeometry x="340" y="1370" width="120" height="60" as="geometry" />
        </mxCell>
        <mxCell id="qpE1LOoZCrQ45wFJdD8l-33" value="header" style="rounded=1;whiteSpace=wrap;html=1;" vertex="1" parent="WIyWlLk6GJQsqaUBKTNV-1">
          <mxGeometry x="340" y="1090" width="120" height="60" as="geometry" />
        </mxCell>
        <mxCell id="qpE1LOoZCrQ45wFJdD8l-36" value="" style="endArrow=classic;html=1;exitX=1;exitY=0.5;exitDx=0;exitDy=0;entryX=1;entryY=0.5;entryDx=0;entryDy=0;" edge="1" parent="WIyWlLk6GJQsqaUBKTNV-1" source="qpE1LOoZCrQ45wFJdD8l-33" target="qpE1LOoZCrQ45wFJdD8l-29">
          <mxGeometry width="50" height="50" relative="1" as="geometry">
            <mxPoint x="390" y="1370" as="sourcePoint" />
            <mxPoint x="590" y="1450" as="targetPoint" />
            <Array as="points">
              <mxPoint x="590" y="1120" />
              <mxPoint x="590" y="1400" />
            </Array>
          </mxGeometry>
        </mxCell>
        <mxCell id="qpE1LOoZCrQ45wFJdD8l-37" value="firstEffect" style="edgeLabel;html=1;align=center;verticalAlign=middle;resizable=0;points=[];" vertex="1" connectable="0" parent="qpE1LOoZCrQ45wFJdD8l-36">
          <mxGeometry x="0.0222" y="1" relative="1" as="geometry">
            <mxPoint as="offset" />
          </mxGeometry>
        </mxCell>
        <mxCell id="qpE1LOoZCrQ45wFJdD8l-38" value="" style="endArrow=classic;html=1;exitX=0;exitY=0.5;exitDx=0;exitDy=0;entryX=0;entryY=0.5;entryDx=0;entryDy=0;" edge="1" parent="WIyWlLk6GJQsqaUBKTNV-1" source="qpE1LOoZCrQ45wFJdD8l-33" target="qpE1LOoZCrQ45wFJdD8l-27">
          <mxGeometry width="50" height="50" relative="1" as="geometry">
            <mxPoint x="390" y="1370" as="sourcePoint" />
            <mxPoint x="240" y="1450" as="targetPoint" />
            <Array as="points">
              <mxPoint x="210" y="1120" />
              <mxPoint x="210" y="1260" />
            </Array>
          </mxGeometry>
        </mxCell>
        <mxCell id="qpE1LOoZCrQ45wFJdD8l-40" value="lastEffect" style="edgeLabel;html=1;align=center;verticalAlign=middle;resizable=0;points=[];" vertex="1" connectable="0" parent="qpE1LOoZCrQ45wFJdD8l-38">
          <mxGeometry x="0.05" y="1" relative="1" as="geometry">
            <mxPoint x="-1" y="-8" as="offset" />
          </mxGeometry>
        </mxCell>
        <mxCell id="qpE1LOoZCrQ45wFJdD8l-45" style="edgeStyle=orthogonalEdgeStyle;rounded=0;orthogonalLoop=1;jettySize=auto;html=1;exitX=0;exitY=0.5;exitDx=0;exitDy=0;" edge="1" parent="WIyWlLk6GJQsqaUBKTNV-1" source="qpE1LOoZCrQ45wFJdD8l-43">
          <mxGeometry relative="1" as="geometry">
            <mxPoint x="340" y="1000" as="targetPoint" />
          </mxGeometry>
        </mxCell>
        <mxCell id="qpE1LOoZCrQ45wFJdD8l-43" value="div" style="rounded=1;whiteSpace=wrap;html=1;" vertex="1" parent="WIyWlLk6GJQsqaUBKTNV-1">
          <mxGeometry x="340" y="970" width="120" height="60" as="geometry" />
        </mxCell>
        <mxCell id="qpE1LOoZCrQ45wFJdD8l-44" value="" style="endArrow=classic;html=1;" edge="1" parent="WIyWlLk6GJQsqaUBKTNV-1" target="qpE1LOoZCrQ45wFJdD8l-29">
          <mxGeometry width="50" height="50" relative="1" as="geometry">
            <mxPoint x="460" y="1000" as="sourcePoint" />
            <mxPoint x="160" y="1460" as="targetPoint" />
            <Array as="points">
              <mxPoint x="640" y="1000" />
              <mxPoint x="640" y="1400" />
            </Array>
          </mxGeometry>
        </mxCell>
        <mxCell id="qpE1LOoZCrQ45wFJdD8l-46" value="firstEffect" style="edgeLabel;html=1;align=center;verticalAlign=middle;resizable=0;points=[];" vertex="1" connectable="0" parent="qpE1LOoZCrQ45wFJdD8l-44">
          <mxGeometry x="-0.3658" y="1" relative="1" as="geometry">
            <mxPoint as="offset" />
          </mxGeometry>
        </mxCell>
        <mxCell id="qpE1LOoZCrQ45wFJdD8l-48" value="" style="endArrow=classic;html=1;exitX=0;exitY=0.5;exitDx=0;exitDy=0;entryX=0;entryY=0.5;entryDx=0;entryDy=0;" edge="1" parent="WIyWlLk6GJQsqaUBKTNV-1" source="qpE1LOoZCrQ45wFJdD8l-43" target="qpE1LOoZCrQ45wFJdD8l-27">
          <mxGeometry width="50" height="50" relative="1" as="geometry">
            <mxPoint x="390" y="1120" as="sourcePoint" />
            <mxPoint x="160" y="1310" as="targetPoint" />
            <Array as="points">
              <mxPoint x="160" y="1000" />
              <mxPoint x="160" y="1260" />
            </Array>
          </mxGeometry>
        </mxCell>
        <mxCell id="qpE1LOoZCrQ45wFJdD8l-49" value="lastEffect" style="edgeLabel;html=1;align=center;verticalAlign=middle;resizable=0;points=[];" vertex="1" connectable="0" parent="qpE1LOoZCrQ45wFJdD8l-48">
          <mxGeometry x="-0.2742" y="-1" relative="1" as="geometry">
            <mxPoint y="15" as="offset" />
          </mxGeometry>
        </mxCell>
      </root>
    </mxGraphModel>
  </diagram>
</mxfile>
